<svg width="40" height="40" viewBox="0 0 40 40" fill="none" xmlns="http://www.w3.org/2000/svg">
<g clip-path="url(#clip0_115_4192)">
<path d="M28.25 39.75H37.625" stroke="url(#paint0_linear_115_4192)" stroke-width="1.25" stroke-miterlimit="10" stroke-linecap="round" stroke-linejoin="round"/>
<path d="M29 26.75C29 24.75 27.375 23.25 25.5 23.25C23.5 23.25 22 24.875 22 26.75V39.75H26.75C26.75 39.75 26.75 34.25 26.75 32.625C26.625 31.125 29 28.75 29 26.75Z" stroke="url(#paint1_linear_115_4192)" stroke-width="1.25" stroke-miterlimit="10" stroke-linecap="round" stroke-linejoin="round"/>
<path d="M1.625 26.75C1.625 24.75 3.25 23.25 5.125 23.25C7 23.25 8.625 24.875 8.625 26.75V39.75H3.875C3.875 39.75 3.875 34.25 3.875 32.625C3.875 31.125 1.625 28.75 1.625 26.75Z" stroke="url(#paint2_linear_115_4192)" stroke-width="1.25" stroke-miterlimit="10" stroke-linecap="round" stroke-linejoin="round"/>
<path d="M25.125 23.25V20.875C25.125 18.25 20.875 16.125 15.75 16.125C10.625 16.125 6.25 18.25 6.25 20.875V23.25" stroke="url(#paint3_linear_115_4192)" stroke-width="1.25" stroke-miterlimit="10" stroke-linecap="round" stroke-linejoin="round"/>
<path d="M8.625 30.25C8.625 29 11.625 27.875 15.25 27.875C18.875 27.875 21.875 28.875 21.875 30.25" stroke="url(#paint4_linear_115_4192)" stroke-width="1.25" stroke-miterlimit="10" stroke-linecap="round" stroke-linejoin="round"/>
<path d="M8.625 37.375H22" stroke="url(#paint5_linear_115_4192)" stroke-width="1.25" stroke-miterlimit="10" stroke-linecap="round" stroke-linejoin="round"/>
<path d="M32.125 39.75V16.125" stroke="url(#paint6_linear_115_4192)" stroke-width="1.25" stroke-miterlimit="10" stroke-linecap="round" stroke-linejoin="round"/>
<path d="M37.625 16.125H26.625V15.375L29.875 6.75H34.5L37.625 15.375V16.125Z" stroke="url(#paint7_linear_115_4192)" stroke-width="1.25" stroke-miterlimit="10" stroke-linecap="round" stroke-linejoin="round"/>
<path d="M35.375 16.125V22.375" stroke="url(#paint8_linear_115_4192)" stroke-width="1.25" stroke-miterlimit="10" stroke-linecap="round" stroke-linejoin="round"/>
</g>
<defs>
<linearGradient id="paint0_linear_115_4192" x1="28.25" y1="40.25" x2="37.625" y2="40.25" gradientUnits="userSpaceOnUse">
<stop stop-color="#825E37"/>
<stop offset="0.5" stop-color="#DFCBA2"/>
<stop offset="1" stop-color="#825E37"/>
</linearGradient>
<linearGradient id="paint1_linear_115_4192" x1="22" y1="31.5" x2="29" y2="31.5" gradientUnits="userSpaceOnUse">
<stop stop-color="#825E37"/>
<stop offset="0.5" stop-color="#DFCBA2"/>
<stop offset="1" stop-color="#825E37"/>
</linearGradient>
<linearGradient id="paint2_linear_115_4192" x1="1.625" y1="31.5" x2="8.625" y2="31.5" gradientUnits="userSpaceOnUse">
<stop stop-color="#825E37"/>
<stop offset="0.5" stop-color="#DFCBA2"/>
<stop offset="1" stop-color="#825E37"/>
</linearGradient>
<linearGradient id="paint3_linear_115_4192" x1="6.25" y1="19.6875" x2="25.125" y2="19.6875" gradientUnits="userSpaceOnUse">
<stop stop-color="#825E37"/>
<stop offset="0.5" stop-color="#DFCBA2"/>
<stop offset="1" stop-color="#825E37"/>
</linearGradient>
<linearGradient id="paint4_linear_115_4192" x1="8.625" y1="29.0625" x2="21.875" y2="29.0625" gradientUnits="userSpaceOnUse">
<stop stop-color="#825E37"/>
<stop offset="0.5" stop-color="#DFCBA2"/>
<stop offset="1" stop-color="#825E37"/>
</linearGradient>
<linearGradient id="paint5_linear_115_4192" x1="8.625" y1="37.875" x2="22" y2="37.875" gradientUnits="userSpaceOnUse">
<stop stop-color="#825E37"/>
<stop offset="0.5" stop-color="#DFCBA2"/>
<stop offset="1" stop-color="#825E37"/>
</linearGradient>
<linearGradient id="paint6_linear_115_4192" x1="32.125" y1="27.9375" x2="33.125" y2="27.9375" gradientUnits="userSpaceOnUse">
<stop stop-color="#825E37"/>
<stop offset="0.5" stop-color="#DFCBA2"/>
<stop offset="1" stop-color="#825E37"/>
</linearGradient>
<linearGradient id="paint7_linear_115_4192" x1="26.625" y1="11.4375" x2="37.625" y2="11.4375" gradientUnits="userSpaceOnUse">
<stop stop-color="#825E37"/>
<stop offset="0.5" stop-color="#DFCBA2"/>
<stop offset="1" stop-color="#825E37"/>
</linearGradient>
<linearGradient id="paint8_linear_115_4192" x1="35.375" y1="19.25" x2="36.375" y2="19.25" gradientUnits="userSpaceOnUse">
<stop stop-color="#825E37"/>
<stop offset="0.5" stop-color="#DFCBA2"/>
<stop offset="1" stop-color="#825E37"/>
</linearGradient>
<clipPath id="clip0_115_4192">
<rect width="40" height="40" fill="white"/>
</clipPath>
</defs>
</svg>
